<svg width="802" height="770" viewBox="0 0 802 770" fill="none" xmlns="http://www.w3.org/2000/svg">
<path d="M178 353C178 347.477 182.477 343 188 343H586C591.523 343 596 347.477 596 353V501H178V353Z" fill="#161515"/>
<path d="M178 501H596C596 546.287 559.287 583 514 583H260C214.713 583 178 546.287 178 501Z" fill="#161515"/>
<path d="M655.974 355C666.564 355 669.889 369.305 660.384 373.975L597.41 404.919C590.765 408.184 583 403.348 583 395.944V365C583 359.477 587.477 355 593 355L655.974 355Z" fill="#161515"/>
<path d="M116.693 355C106.122 355 102.781 369.265 112.252 373.96L174.559 404.842C181.206 408.137 189 403.301 189 395.883V365C189 359.477 184.523 355 179 355L116.693 355Z" fill="#161515"/>
<path d="M581 309.5C594.807 309.5 605.344 297.393 595.992 287.236C585.522 275.863 567.084 265.403 541.856 256.821C500.786 242.849 445.082 235 387 235C328.918 235 273.214 242.849 232.144 256.821C206.916 265.403 188.478 275.863 178.008 287.236C168.656 297.393 179.193 309.5 193 309.5L387 309.5H581Z" fill="#161515"/>
<path d="M337 232.5C337 205.162 359.162 183 386.5 183C413.838 183 436 205.162 436 232.5V244H337V232.5Z" fill="#161515"/>
<path d="M256.469 235C262.152 229.267 270.108 212.34 256.469 190.488C242.831 168.637 253.886 153.058 261.119 148" stroke="#161515" stroke-width="12" stroke-linecap="round"/>
<path d="M303.78 214C311.492 207.081 322.29 186.651 303.78 160.279C285.27 133.907 300.274 115.105 310.09 109" stroke="#161515" stroke-width="12" stroke-linecap="round"/>
<ellipse cx="334" cy="412" rx="19" ry="27" fill="white"/>
<ellipse cx="436" cy="412" rx="19" ry="27" fill="white"/>
<path d="M334 472C347.934 487.092 387.841 508.222 436 472" stroke="white" stroke-width="15" stroke-linecap="round"/>
</svg>
